<mxfile host="65bd71144e">
    <diagram id="wvKpsjuwhpT668kVCd92" name="第 1 页">
        <mxGraphModel dx="699" dy="570" grid="1" gridSize="10" guides="1" tooltips="1" connect="1" arrows="1" fold="1" page="1" pageScale="1" pageWidth="827" pageHeight="1169" math="0" shadow="0">
            <root>
                <mxCell id="0"/>
                <mxCell id="1" parent="0"/>
                <mxCell id="19" value="&lt;span style=&quot;font-size: 17px;&quot;&gt;Motor&lt;/span&gt;" style="swimlane;fontStyle=0;align=center;verticalAlign=top;childLayout=stackLayout;horizontal=1;startSize=40;horizontalStack=0;resizeParent=1;resizeParentMax=0;resizeLast=0;collapsible=0;marginBottom=0;html=1;whiteSpace=wrap;" parent="1" vertex="1">
                    <mxGeometry x="10" y="40" width="310" height="510" as="geometry"/>
                </mxCell>
                <mxCell id="20" value="attributes" style="text;html=1;strokeColor=none;fillColor=none;align=center;verticalAlign=middle;spacingLeft=4;spacingRight=4;overflow=hidden;rotatable=0;points=[[0,0.5],[1,0.5]];portConstraint=eastwest;whiteSpace=wrap;" parent="19" vertex="1">
                    <mxGeometry y="40" width="310" height="20" as="geometry"/>
                </mxCell>
                <mxCell id="21" value="&lt;div&gt;enum ID :int {J1 = 1,J2,J3,J4,J5,J6}&lt;/div&gt;&lt;div&gt;&lt;br&gt;&lt;/div&gt;&lt;div&gt;using Angles = array&amp;lt;float, 6&amp;gt;&lt;/div&gt;&lt;div&gt;using Speeds = array&amp;lt;short ,6&amp;gt;&lt;/div&gt;&lt;div&gt;int ID [6]= {J1,J2,J3,J4,J5,J6}&lt;/div&gt;&lt;div&gt;#define P&lt;/div&gt;&lt;div&gt;#define I&lt;/div&gt;&lt;div&gt;#define D&lt;/div&gt;" style="text;html=1;strokeColor=none;fillColor=none;align=left;verticalAlign=middle;spacingLeft=4;spacingRight=4;overflow=hidden;rotatable=0;points=[[0,0.5],[1,0.5]];portConstraint=eastwest;whiteSpace=wrap;" parent="19" vertex="1">
                    <mxGeometry y="60" width="310" height="160" as="geometry"/>
                </mxCell>
                <mxCell id="24" value="" style="line;strokeWidth=1;fillColor=none;align=left;verticalAlign=middle;spacingTop=-1;spacingLeft=3;spacingRight=3;rotatable=0;labelPosition=right;points=[];portConstraint=eastwest;" parent="19" vertex="1">
                    <mxGeometry y="220" width="310" height="8" as="geometry"/>
                </mxCell>
                <mxCell id="25" value="&lt;font style=&quot;font-size: 17px;&quot;&gt;operations&lt;/font&gt;" style="text;html=1;strokeColor=none;fillColor=none;align=center;verticalAlign=middle;spacingLeft=4;spacingRight=4;overflow=hidden;rotatable=0;points=[[0,0.5],[1,0.5]];portConstraint=eastwest;whiteSpace=wrap;" parent="19" vertex="1">
                    <mxGeometry y="228" width="310" height="32" as="geometry"/>
                </mxCell>
                <mxCell id="26" value="+Set_Motor_Angles( *ID, id_len, Angles angles)&lt;div&gt;&lt;br&gt;&lt;/div&gt;&lt;div&gt;+Get_Motor_Angle( *ID, id_len)&lt;/div&gt;&lt;div&gt;&lt;br&gt;&lt;/div&gt;&lt;div&gt;+Get_Motor_Error( *ID, id_len)&lt;/div&gt;&lt;div&gt;&lt;br&gt;&lt;/div&gt;&lt;div&gt;+Return_Zero(ID)&lt;/div&gt;&lt;div&gt;+All_Return_Zero()&lt;/div&gt;&lt;div&gt;&lt;br&gt;&lt;/div&gt;&lt;div&gt;+Power_On()&lt;/div&gt;&lt;div&gt;+Power_Off()&lt;/div&gt;&lt;div&gt;&lt;br&gt;&lt;/div&gt;&lt;div&gt;+Change_Servo_ID(old_ID, new_ID)&lt;/div&gt;&lt;div&gt;+Chagne_PID(new_P = P , new_I = I, new_D = D)&lt;/div&gt;&lt;div&gt;&lt;br&gt;&lt;/div&gt;" style="text;html=1;strokeColor=none;fillColor=none;align=left;verticalAlign=middle;spacingLeft=4;spacingRight=4;overflow=hidden;rotatable=0;points=[[0,0.5],[1,0.5]];portConstraint=eastwest;whiteSpace=wrap;" parent="19" vertex="1">
                    <mxGeometry y="260" width="310" height="250" as="geometry"/>
                </mxCell>
            </root>
        </mxGraphModel>
    </diagram>
</mxfile>